<svg version="1.1" viewBox="0.0 0.0 960.0 540.0" fill="none" stroke="none" stroke-linecap="square" stroke-miterlimit="10" xmlns="http://www.w3.org/2000/svg"><clipPath id="ty0"><path d="m0 0l960 0l0 540l-960 0z" clip-rule="nonzero"/></clipPath><g clip-path="url(#ty0)"><path fill="#001f2b" d="m0 0l960 0l0 540l-960 0z" fill-rule="evenodd"/><defs><linearGradient id="ty1" gradientUnits="userSpaceOnUse" x1="960" y1="59" x2="623" y2="59"><stop offset="0.0" stop-color="#001f2b"/><stop offset="0.5" stop-color="#00465b"/><stop offset="1.0" stop-color="#0084ad"/></linearGradient></defs><path fill="url(#ty1)" d="m623.5 59.7l0 37.6l336.5 0l0 -37.6z" fill-rule="evenodd"/><defs><linearGradient id="ty2" gradientUnits="userSpaceOnUse" x1="0" y1="97" x2="163" y2="97"><stop offset="0.0" stop-color="#001f2b"/><stop offset="0.5" stop-color="#006080"/><stop offset="1.0" stop-color="#00a3d5"/></linearGradient></defs><path fill="url(#ty2)" d="m0 97.3l0 46.9l162.9 0l0 -46.9z" fill-rule="evenodd"/><defs><linearGradient id="ty3" gradientUnits="userSpaceOnUse" x1="960" y1="403" x2="503" y2="403"><stop offset="0.0" stop-color="#001f2b"/><stop offset="0.5" stop-color="#006080"/><stop offset="1.0" stop-color="#007599"/></linearGradient></defs><path fill="url(#ty3)" d="m503.8 403.3l0 88.9l456.2 0l0 -88.9z" fill-rule="evenodd"/><defs><linearGradient id="ty4" gradientUnits="userSpaceOnUse" x1="960" y1="336" x2="758" y2="336"><stop offset="0.0" stop-color="#001f2b"/><stop offset="1.0" stop-color="#007090"/></linearGradient></defs><path fill="url(#ty4)" d="m758.3 336.6l0 50.0l201.7 0l0 -50.0z" fill-rule="evenodd"/><defs><linearGradient id="ty5" gradientUnits="userSpaceOnUse" x1="0" y1="421" x2="202" y2="421"><stop offset="0.0" stop-color="#001f2b"/><stop offset="0.5" stop-color="#00465b"/><stop offset="1.0" stop-color="#005772"/></linearGradient></defs><path fill="url(#ty5)" d="m0 421.5l0 27.3l201.7 0l0 -27.3z" fill-rule="evenodd"/><defs><linearGradient id="ty6" gradientUnits="userSpaceOnUse" x1="0" y1="353" x2="265" y2="353"><stop offset="0.0" stop-color="#001f2b"/><stop offset="1.0" stop-color="#007090"/></linearGradient></defs><path fill="url(#ty6)" d="m0 353.3l0 40.9l264.4 0l0 -40.9z" fill-rule="evenodd"/><defs><linearGradient id="ty7" gradientUnits="userSpaceOnUse" x1="960" y1="336" x2="861" y2="336"><stop offset="0.0" stop-color="#001f2b"/><stop offset="0.5" stop-color="#006080"/><stop offset="1.0" stop-color="#007090"/></linearGradient></defs><path fill="url(#ty7)" d="m861.5 336.6l0 16.7l98.5 0l0 -16.7z" fill-rule="evenodd"/><defs><linearGradient id="ty8" gradientUnits="userSpaceOnUse" x1="960" y1="12" x2="718" y2="12"><stop offset="0.0" stop-color="#001f2b"/><stop offset="0.5" stop-color="#006080"/><stop offset="1.0" stop-color="#00a3d5"/></linearGradient></defs><path fill="url(#ty8)" d="m718.2 12.7l0 47.0l241.8 0l0 -47.0z" fill-rule="evenodd"/><defs><linearGradient id="ty9" gradientUnits="userSpaceOnUse" x1="960" y1="97" x2="718" y2="97"><stop offset="0.0" stop-color="#001f2b"/><stop offset="0.55" stop-color="#007090"/><stop offset="1.0" stop-color="#6dfffa"/></linearGradient></defs><path fill="url(#ty9)" d="m718.2 97.3l0 16.7l241.8 0l0 -16.7z" fill-rule="evenodd"/><defs><linearGradient id="ty10" gradientUnits="userSpaceOnUse" x1="0" y1="66" x2="242" y2="66"><stop offset="0.0" stop-color="#001f2b"/><stop offset="1.0" stop-color="#007090"/></linearGradient></defs><path fill="url(#ty10)" d="m0 66.2l0 31.0l241.8 0l0 -31.0z" fill-rule="evenodd"/><defs><linearGradient id="ty11" gradientUnits="userSpaceOnUse" x1="0" y1="386" x2="99" y2="386"><stop offset="0.0" stop-color="#001f2b"/><stop offset="0.5" stop-color="#006b8f"/><stop offset="1.0" stop-color="#b9e8ff"/></linearGradient></defs><path fill="url(#ty11)" d="m0 386.7l0 16.7l99.2 0l0 -16.7z" fill-rule="evenodd"/><defs><linearGradient id="ty12" gradientUnits="userSpaceOnUse" x1="861" y1="448" x2="960" y2="448"><stop offset="0.0" stop-color="#FFBB3D"/><stop offset="1.0" stop-color="#001f2b"/></linearGradient></defs><path fill="url(#ty12)" d="m861.5 440.3l0 16.7l98.5 0l0 -16.7z" fill-rule="evenodd"/></g></svg>
