<?xml version="1.0" standalone="no"?>
<!DOCTYPE svg PUBLIC "-//W3C//DTD SVG 20010904//EN"
 "http://www.w3.org/TR/2001/REC-SVG-20010904/DTD/svg10.dtd">
<svg version="1.0" xmlns="http://www.w3.org/2000/svg"
 width="2816.000000pt" height="1536.000000pt" viewBox="0 0 2816.000000 1536.000000"
 preserveAspectRatio="xMidYMid meet">

<g transform="translate(0.000000,1536.000000) scale(0.100000,-0.100000)"
fill="#000000" stroke="none">
<path d="M0 7680 l0 -7680 14080 0 14080 0 0 7680 0 7680 -14080 0 -14080 0 0
-7680z m12022 1979 c161 -63 294 -177 365 -315 85 -163 78 -25 78 -1579 0
-1305 -1 -1384 -18 -1444 -65 -228 -245 -408 -464 -465 -55 -14 -475 -16
-4265 -16 -3722 0 -4211 2 -4263 15 -115 29 -203 81 -296 174 -69 69 -94 103
-128 171 -75 155 -72 68 -69 1598 l3 1367 23 65 c83 230 275 404 497 450 22 4
1937 7 4255 6 l4215 -1 67 -26z m3313 -314 c308 -54 534 -179 686 -380 84
-112 156 -307 161 -441 l3 -63 -367 -5 c-353 -4 -368 -3 -368 15 0 48 -45 136
-94 185 -71 71 -138 95 -282 102 -128 5 -191 -9 -267 -59 -127 -84 -136 -246
-19 -336 70 -53 132 -72 512 -158 289 -65 452 -127 595 -226 188 -129 297
-314 325 -547 20 -159 -12 -348 -81 -485 -58 -114 -167 -234 -284 -312 -103
-68 -293 -137 -455 -165 -107 -19 -313 -28 -453 -19 -466 29 -800 204 -976
513 -64 111 -103 250 -117 414 l-7 82 370 0 370 0 7 -57 c21 -190 184 -316
426 -330 53 -3 121 0 153 6 223 41 334 203 240 348 -51 79 -160 130 -383 178
-554 119 -825 242 -963 437 -99 139 -131 245 -131 428 1 184 35 308 124 445
168 257 439 399 860 449 69 8 326 -4 415 -19z m2127 -452 l3 -268 193 -3 192
-2 0 -265 0 -265 -195 0 -196 0 3 -477 c3 -448 4 -480 22 -509 31 -51 70 -69
156 -69 41 0 93 4 115 8 l40 8 43 -238 c24 -131 46 -247 49 -259 4 -18 -4 -25
-49 -42 -116 -47 -182 -56 -388 -56 -170 0 -205 3 -274 22 -246 68 -413 232
-456 445 -8 40 -12 233 -13 610 l-2 552 -142 3 -143 3 0 264 0 265 139 0 138
0 7 86 c4 47 7 165 6 262 -1 97 -1 180 -1 185 1 4 170 7 376 7 l375 0 2 -267z
m1807 -244 c161 -15 323 -58 445 -118 160 -79 263 -177 331 -316 72 -146 69
-106 73 -957 l3 -768 -344 0 -344 0 -7 92 c-3 50 -6 116 -6 147 l0 56 -34 -50
c-52 -78 -156 -169 -238 -209 -114 -56 -209 -76 -363 -76 -233 0 -400 58 -533
184 -129 122 -189 285 -179 481 14 259 127 425 363 536 140 66 298 99 617 129
262 25 337 77 303 211 -16 59 -52 100 -115 131 -66 32 -194 32 -268 -1 -61
-27 -125 -92 -142 -144 l-13 -37 -191 0 c-106 0 -256 3 -334 7 l-143 6 0 26
c0 50 30 146 72 231 59 119 188 248 306 309 143 73 292 115 471 131 128 11
146 11 270 -1z m2226 -15 c150 -36 287 -137 371 -273 l39 -65 3 162 2 162 370
0 370 0 0 -1085 c0 -1184 1 -1158 -57 -1305 -76 -190 -222 -345 -418 -442
-137 -68 -266 -101 -476 -119 -198 -17 -405 -2 -579 41 -227 57 -441 202 -539
364 -39 65 -80 164 -88 211 l-5 33 73 6 c102 7 580 36 601 36 10 0 26 -16 37
-38 28 -54 89 -106 157 -133 85 -33 263 -33 346 0 81 32 152 98 179 169 20 52
23 79 26 282 l4 225 -36 -53 c-90 -132 -218 -222 -372 -264 -110 -29 -296 -29
-408 1 -430 115 -655 471 -655 1037 0 178 16 284 66 441 62 193 165 347 305
453 204 153 451 209 684 154z m2795 1 c543 -90 840 -488 840 -1127 l0 -128
-710 0 -710 0 0 -22 c1 -94 68 -248 134 -304 67 -57 134 -77 261 -78 98 -1
116 2 165 25 73 34 122 78 145 130 l19 42 336 -8 c184 -4 338 -9 342 -11 3 -2
0 -32 -8 -67 -55 -234 -262 -460 -516 -561 -215 -85 -527 -107 -782 -55 -467
95 -744 389 -815 866 -16 106 -14 345 4 449 41 230 145 438 289 577 242 233
620 335 1006 272z m2770 -7060 c0 -30 53 -141 96 -202 72 -101 226 -210 325
-230 31 -6 43 -43 13 -43 -29 0 -178 -77 -230 -118 -86 -70 -183 -216 -200
-302 -11 -51 -37 -38 -58 31 -56 180 -219 330 -428 393 -20 6 -14 36 7 36 26
0 123 45 188 88 107 70 223 228 244 333 4 20 11 29 24 29 11 0 19 -7 19 -15z"/>
<path d="M8545 8730 c-302 -43 -553 -216 -680 -470 -78 -154 -110 -325 -102
-539 11 -310 97 -519 285 -692 160 -147 342 -216 592 -226 156 -6 288 16 419
68 165 66 318 204 391 353 39 78 80 214 80 263 l0 23 -254 0 -253 0 -13 -45
c-30 -107 -110 -180 -230 -211 -126 -32 -256 -3 -343 76 -104 95 -148 224
-150 435 -1 209 37 331 135 429 71 70 143 99 253 100 152 2 250 -55 309 -177
19 -39 37 -80 40 -89 5 -17 26 -18 256 -18 l250 0 0 39 c0 57 -46 206 -88 285
-69 128 -215 263 -350 323 -143 63 -387 96 -547 73z"/>
<path d="M3930 7765 l0 -946 533 3 c594 5 583 4 744 78 210 97 321 297 292
522 -25 191 -171 348 -361 389 -49 11 -51 13 -28 21 80 30 156 73 195 109 91
84 138 235 116 371 -29 180 -139 296 -346 366 l-80 27 -532 3 -533 3 0 -946z
m875 525 c68 -34 95 -77 95 -149 0 -120 -71 -176 -241 -187 -53 -4 -121 -4
-152 0 l-57 7 0 181 0 180 153 -4 c138 -3 156 -5 202 -28z m13 -675 c103 -31
157 -106 150 -210 -5 -79 -33 -119 -107 -153 -52 -25 -68 -27 -233 -30 l-178
-4 0 206 0 206 158 0 c113 0 173 -4 210 -15z"/>
<path d="M6184 8382 c-61 -180 -207 -603 -323 -941 -116 -338 -211 -615 -211
-617 0 -2 123 -4 274 -4 l274 0 56 174 c31 96 56 179 56 185 0 8 96 11 324 11
l325 0 56 -170 c30 -93 58 -176 61 -185 5 -13 44 -15 278 -15 150 0 275 2 278
5 3 3 -12 56 -34 118 -22 62 -152 434 -289 827 -138 393 -267 765 -288 825
l-39 110 -343 2 -344 3 -111 -328z m473 -219 c5 -21 48 -158 93 -305 46 -148
81 -270 78 -273 -3 -3 -91 -4 -195 -3 l-191 3 96 308 c52 169 98 307 102 307
3 0 11 -17 17 -37z"/>
<path d="M9820 7765 l0 -945 255 0 255 0 0 253 0 252 86 103 c47 56 89 102 92
102 4 0 101 -158 216 -350 115 -192 215 -351 223 -354 25 -10 593 -7 593 3 0
8 -62 108 -433 701 -50 80 -119 191 -154 248 l-64 103 118 152 c65 84 209 268
320 409 112 141 203 260 203 263 0 3 -136 4 -302 3 l-302 -3 -58 -75 c-32 -41
-160 -209 -284 -372 -124 -163 -232 -302 -240 -309 -12 -10 -14 42 -14 375 l0
386 -255 0 -255 0 0 -945z"/>
<path d="M19302 7413 c-35 -12 -120 -34 -190 -48 -70 -14 -153 -34 -184 -46
-116 -43 -167 -137 -135 -250 26 -89 86 -131 203 -144 152 -17 304 70 354 204
22 58 41 294 24 303 -5 2 -37 -6 -72 -19z"/>
<path d="M21459 8066 c-157 -56 -242 -204 -255 -446 -11 -194 32 -354 121
-449 64 -68 128 -95 230 -95 66 -1 90 4 136 25 95 45 155 123 195 254 26 83
26 322 1 415 -40 151 -123 260 -224 294 -56 19 -154 20 -204 2z"/>
<path d="M23979 8126 c-90 -24 -153 -73 -212 -167 -25 -41 -59 -151 -49 -161
4 -4 165 -7 358 -6 l349 3 -3 45 c-4 67 -54 161 -113 214 -84 75 -214 104
-330 72z"/>
</g>
</svg>
