<?xml version="1.0" standalone="yes"?>
<svg xmlns="http://www.w3.org/2000/svg" version="1.1" width="256" height="256" viewBox="0 0 256 256">
  <rect x="0" y="0" width="256" height="256" style="fill:#ffffff;shape-rendering:crispEdges;"/>
  <path x="0" y="0" style="fill:#000000;shape-rendering:crispEdges;" d="M20.90,20.90 V26.12 H26.12 V20.90 H20.90 Z M26.12,20.90 V26.12 H31.35 V20.90 H26.12 Z M31.35,20.90 V26.12 H36.57 V20.90 H31.35 Z M36.57,20.90 V26.12 H41.80 V20.90 H36.57 Z M41.80,20.90 V26.12 H47.02 V20.90 H41.80 Z M47.02,20.90 V26.12 H52.24 V20.90 H47.02 Z M52.24,20.90 V26.12 H57.47 V20.90 H52.24 Z M62.69,20.90 V26.12 H67.92 V20.90 H62.69 Z M73.14,20.90 V26.12 H78.37 V20.90 H73.14 Z M78.37,20.90 V26.12 H83.59 V20.90 H78.37 Z M83.59,20.90 V26.12 H88.82 V20.90 H83.59 Z M109.71,20.90 V26.12 H114.94 V20.90 H109.71 Z M135.84,20.90 V26.12 H141.06 V20.90 H135.84 Z M156.73,20.90 V26.12 H161.96 V20.90 H156.73 Z M161.96,20.90 V26.12 H167.18 V20.90 H161.96 Z M167.18,20.90 V26.12 H172.41 V20.90 H167.18 Z M172.41,20.90 V26.12 H177.63 V20.90 H172.41 Z M177.63,20.90 V26.12 H182.86 V20.90 H177.63 Z M182.86,20.90 V26.12 H188.08 V20.90 H182.86 Z M188.08,20.90 V26.12 H193.31 V20.90 H188.08 Z M198.53,20.90 V26.12 H203.76 V20.90 H198.53 Z M203.76,20.90 V26.12 H208.98 V20.90 H203.76 Z M208.98,20.90 V26.12 H214.20 V20.90 H208.98 Z M214.20,20.90 V26.12 H219.43 V20.90 H214.20 Z M219.43,20.90 V26.12 H224.65 V20.90 H219.43 Z M224.65,20.90 V26.12 H229.88 V20.90 H224.65 Z M229.88,20.90 V26.12 H235.10 V20.90 H229.88 Z M20.90,26.12 V31.35 H26.12 V26.12 H20.90 Z M52.24,26.12 V31.35 H57.47 V26.12 H52.24 Z M73.14,26.12 V31.35 H78.37 V26.12 H73.14 Z M78.37,26.12 V31.35 H83.59 V26.12 H78.37 Z M88.82,26.12 V31.35 H94.04 V26.12 H88.82 Z M104.49,26.12 V31.35 H109.71 V26.12 H104.49 Z M109.71,26.12 V31.35 H114.94 V26.12 H109.71 Z M114.94,26.12 V31.35 H120.16 V26.12 H114.94 Z M125.39,26.12 V31.35 H130.61 V26.12 H125.39 Z M130.61,26.12 V31.35 H135.84 V26.12 H130.61 Z M135.84,26.12 V31.35 H141.06 V26.12 H135.84 Z M141.06,26.12 V31.35 H146.29 V26.12 H141.06 Z M146.29,26.12 V31.35 H151.51 V26.12 H146.29 Z M151.51,26.12 V31.35 H156.73 V26.12 H151.51 Z M167.18,26.12 V31.35 H172.41 V26.12 H167.18 Z M177.63,26.12 V31.35 H182.86 V26.12 H177.63 Z M182.86,26.12 V31.35 H188.08 V26.12 H182.86 Z M188.08,26.12 V31.35 H193.31 V26.12 H188.08 Z M198.53,26.12 V31.35 H203.76 V26.12 H198.53 Z M229.88,26.12 V31.35 H235.10 V26.12 H229.88 Z M20.90,31.35 V36.57 H26.12 V31.35 H20.90 Z M31.35,31.35 V36.57 H36.57 V31.35 H31.35 Z M36.57,31.35 V36.57 H41.80 V31.35 H36.57 Z M41.80,31.35 V36.57 H47.02 V31.35 H41.80 Z M52.24,31.35 V36.57 H57.47 V31.35 H52.24 Z M78.37,31.35 V36.57 H83.59 V31.35 H78.37 Z M99.27,31.35 V36.57 H104.49 V31.35 H99.27 Z M104.49,31.35 V36.57 H109.71 V31.35 H104.49 Z M109.71,31.35 V36.57 H114.94 V31.35 H109.71 Z M114.94,31.35 V36.57 H120.16 V31.35 H114.94 Z M141.06,31.35 V36.57 H146.29 V31.35 H141.06 Z M146.29,31.35 V36.57 H151.51 V31.35 H146.29 Z M167.18,31.35 V36.57 H172.41 V31.35 H167.18 Z M172.41,31.35 V36.57 H177.63 V31.35 H172.41 Z M177.63,31.35 V36.57 H182.86 V31.35 H177.63 Z M182.86,31.35 V36.57 H188.08 V31.35 H182.86 Z M198.53,31.35 V36.57 H203.76 V31.35 H198.53 Z M208.98,31.35 V36.57 H214.20 V31.35 H208.98 Z M214.20,31.35 V36.57 H219.43 V31.35 H214.20 Z M219.43,31.35 V36.57 H224.65 V31.35 H219.43 Z M229.88,31.35 V36.57 H235.10 V31.35 H229.88 Z M20.90,36.57 V41.80 H26.12 V36.57 H20.90 Z M31.35,36.57 V41.80 H36.57 V36.57 H31.35 Z M36.57,36.57 V41.80 H41.80 V36.57 H36.57 Z M41.80,36.57 V41.80 H47.02 V36.57 H41.80 Z M52.24,36.57 V41.80 H57.47 V36.57 H52.24 Z M62.69,36.57 V41.80 H67.92 V36.57 H62.69 Z M67.92,36.57 V41.80 H73.14 V36.57 H67.92 Z M83.59,36.57 V41.80 H88.82 V36.57 H83.59 Z M94.04,36.57 V41.80 H99.27 V36.57 H94.04 Z M109.71,36.57 V41.80 H114.94 V36.57 H109.71 Z M114.94,36.57 V41.80 H120.16 V36.57 H114.94 Z M130.61,36.57 V41.80 H135.84 V36.57 H130.61 Z M135.84,36.57 V41.80 H141.06 V36.57 H135.84 Z M151.51,36.57 V41.80 H156.73 V36.57 H151.51 Z M156.73,36.57 V41.80 H161.96 V36.57 H156.73 Z M172.41,36.57 V41.80 H177.63 V36.57 H172.41 Z M177.63,36.57 V41.80 H182.86 V36.57 H177.63 Z M198.53,36.57 V41.80 H203.76 V36.57 H198.53 Z M208.98,36.57 V41.80 H214.20 V36.57 H208.98 Z M214.20,36.57 V41.80 H219.43 V36.57 H214.20 Z M219.43,36.57 V41.80 H224.65 V36.57 H219.43 Z M229.88,36.57 V41.80 H235.10 V36.57 H229.88 Z M20.90,41.80 V47.02 H26.12 V41.80 H20.90 Z M31.35,41.80 V47.02 H36.57 V41.80 H31.35 Z M36.57,41.80 V47.02 H41.80 V41.80 H36.57 Z M41.80,41.80 V47.02 H47.02 V41.80 H41.80 Z M52.24,41.80 V47.02 H57.47 V41.80 H52.24 Z M62.69,41.80 V47.02 H67.92 V41.80 H62.69 Z M78.37,41.80 V47.02 H83.59 V41.80 H78.37 Z M104.49,41.80 V47.02 H109.71 V41.80 H104.49 Z M114.94,41.80 V47.02 H120.16 V41.80 H114.94 Z M130.61,41.80 V47.02 H135.84 V41.80 H130.61 Z M156.73,41.80 V47.02 H161.96 V41.80 H156.73 Z M161.96,41.80 V47.02 H167.18 V41.80 H161.96 Z M182.86,41.80 V47.02 H188.08 V41.80 H182.86 Z M188.08,41.80 V47.02 H193.31 V41.80 H188.08 Z M198.53,41.80 V47.02 H203.76 V41.80 H198.53 Z M208.98,41.80 V47.02 H214.20 V41.80 H208.98 Z M214.20,41.80 V47.02 H219.43 V41.80 H214.20 Z M219.43,41.80 V47.02 H224.65 V41.80 H219.43 Z M229.88,41.80 V47.02 H235.10 V41.80 H229.88 Z M20.90,47.02 V52.24 H26.12 V47.02 H20.90 Z M52.24,47.02 V52.24 H57.47 V47.02 H52.24 Z M62.69,47.02 V52.24 H67.92 V47.02 H62.69 Z M67.92,47.02 V52.24 H73.14 V47.02 H67.92 Z M78.37,47.02 V52.24 H83.59 V47.02 H78.37 Z M88.82,47.02 V52.24 H94.04 V47.02 H88.82 Z M130.61,47.02 V52.24 H135.84 V47.02 H130.61 Z M135.84,47.02 V52.24 H141.06 V47.02 H135.84 Z M156.73,47.02 V52.24 H161.96 V47.02 H156.73 Z M161.96,47.02 V52.24 H167.18 V47.02 H161.96 Z M167.18,47.02 V52.24 H172.41 V47.02 H167.18 Z M182.86,47.02 V52.24 H188.08 V47.02 H182.86 Z M188.08,47.02 V52.24 H193.31 V47.02 H188.08 Z M198.53,47.02 V52.24 H203.76 V47.02 H198.53 Z M229.88,47.02 V52.24 H235.10 V47.02 H229.88 Z M20.90,52.24 V57.47 H26.12 V52.24 H20.90 Z M26.12,52.24 V57.47 H31.35 V52.24 H26.12 Z M31.35,52.24 V57.47 H36.57 V52.24 H31.35 Z M36.57,52.24 V57.47 H41.80 V52.24 H36.57 Z M41.80,52.24 V57.47 H47.02 V52.24 H41.80 Z M47.02,52.24 V57.47 H52.24 V52.24 H47.02 Z M52.24,52.24 V57.47 H57.47 V52.24 H52.24 Z M62.69,52.24 V57.47 H67.92 V52.24 H62.69 Z M73.14,52.24 V57.47 H78.37 V52.24 H73.14 Z M83.59,52.24 V57.47 H88.82 V52.24 H83.59 Z M94.04,52.24 V57.47 H99.27 V52.24 H94.04 Z M104.49,52.24 V57.47 H109.71 V52.24 H104.49 Z M114.94,52.24 V57.47 H120.16 V52.24 H114.94 Z M125.39,52.24 V57.47 H130.61 V52.24 H125.39 Z M135.84,52.24 V57.47 H141.06 V52.24 H135.84 Z M146.29,52.24 V57.47 H151.51 V52.24 H146.29 Z M156.73,52.24 V57.47 H161.96 V52.24 H156.73 Z M167.18,52.24 V57.47 H172.41 V52.24 H167.18 Z M177.63,52.24 V57.47 H182.86 V52.24 H177.63 Z M188.08,52.24 V57.47 H193.31 V52.24 H188.08 Z M198.53,52.24 V57.47 H203.76 V52.24 H198.53 Z M203.76,52.24 V57.47 H208.98 V52.24 H203.76 Z M208.98,52.24 V57.47 H214.20 V52.24 H208.98 Z M214.20,52.24 V57.47 H219.43 V52.24 H214.20 Z M219.43,52.24 V57.47 H224.65 V52.24 H219.43 Z M224.65,52.24 V57.47 H229.88 V52.24 H224.65 Z M229.88,52.24 V57.47 H235.10 V52.24 H229.88 Z M62.69,57.47 V62.69 H67.92 V57.47 H62.69 Z M67.92,57.47 V62.69 H73.14 V57.47 H67.92 Z M73.14,57.47 V62.69 H78.37 V57.47 H73.14 Z M88.82,57.47 V62.69 H94.04 V57.47 H88.82 Z M94.04,57.47 V62.69 H99.27 V57.47 H94.04 Z M99.27,57.47 V62.69 H104.49 V57.47 H99.27 Z M104.49,57.47 V62.69 H109.71 V57.47 H104.49 Z M109.71,57.47 V62.69 H114.94 V57.47 H109.71 Z M114.94,57.47 V62.69 H120.16 V57.47 H114.94 Z M120.16,57.47 V62.69 H125.39 V57.47 H120.16 Z M130.61,57.47 V62.69 H135.84 V57.47 H130.61 Z M135.84,57.47 V62.69 H141.06 V57.47 H135.84 Z M146.29,57.47 V62.69 H151.51 V57.47 H146.29 Z M151.51,57.47 V62.69 H156.73 V57.47 H151.51 Z M172.41,57.47 V62.69 H177.63 V57.47 H172.41 Z M177.63,57.47 V62.69 H182.86 V57.47 H177.63 Z M188.08,57.47 V62.69 H193.31 V57.47 H188.08 Z M20.90,62.69 V67.92 H26.12 V62.69 H20.90 Z M26.12,62.69 V67.92 H31.35 V62.69 H26.12 Z M31.35,62.69 V67.92 H36.57 V62.69 H31.35 Z M41.80,62.69 V67.92 H47.02 V62.69 H41.80 Z M52.24,62.69 V67.92 H57.47 V62.69 H52.24 Z M62.69,62.69 V67.92 H67.92 V62.69 H62.69 Z M73.14,62.69 V67.92 H78.37 V62.69 H73.14 Z M88.82,62.69 V67.92 H94.04 V62.69 H88.82 Z M114.94,62.69 V67.92 H120.16 V62.69 H114.94 Z M125.39,62.69 V67.92 H130.61 V62.69 H125.39 Z M135.84,62.69 V67.92 H141.06 V62.69 H135.84 Z M146.29,62.69 V67.92 H151.51 V62.69 H146.29 Z M151.51,62.69 V67.92 H156.73 V62.69 H151.51 Z M167.18,62.69 V67.92 H172.41 V62.69 H167.18 Z M172.41,62.69 V67.92 H177.63 V62.69 H172.41 Z M188.08,62.69 V67.92 H193.31 V62.69 H188.08 Z M193.31,62.69 V67.92 H198.53 V62.69 H193.31 Z M198.53,62.69 V67.92 H203.76 V62.69 H198.53 Z M203.76,62.69 V67.92 H208.98 V62.69 H203.76 Z M208.98,62.69 V67.92 H214.20 V62.69 H208.98 Z M214.20,62.69 V67.92 H219.43 V62.69 H214.20 Z M229.88,62.69 V67.92 H235.10 V62.69 H229.88 Z M26.12,67.92 V73.14 H31.35 V67.92 H26.12 Z M36.57,67.92 V73.14 H41.80 V67.92 H36.57 Z M57.47,67.92 V73.14 H62.69 V67.92 H57.47 Z M62.69,67.92 V73.14 H67.92 V67.92 H62.69 Z M67.92,67.92 V73.14 H73.14 V67.92 H67.92 Z M94.04,67.92 V73.14 H99.27 V67.92 H94.04 Z M104.49,67.92 V73.14 H109.71 V67.92 H104.49 Z M125.39,67.92 V73.14 H130.61 V67.92 H125.39 Z M130.61,67.92 V73.14 H135.84 V67.92 H130.61 Z M135.84,67.92 V73.14 H141.06 V67.92 H135.84 Z M146.29,67.92 V73.14 H151.51 V67.92 H146.29 Z M156.73,67.92 V73.14 H161.96 V67.92 H156.73 Z M167.18,67.92 V73.14 H172.41 V67.92 H167.18 Z M177.63,67.92 V73.14 H182.86 V67.92 H177.63 Z M182.86,67.92 V73.14 H188.08 V67.92 H182.86 Z M188.08,67.92 V73.14 H193.31 V67.92 H188.08 Z M193.31,67.92 V73.14 H198.53 V67.92 H193.31 Z M198.53,67.92 V73.14 H203.76 V67.92 H198.53 Z M203.76,67.92 V73.14 H208.98 V67.92 H203.76 Z M219.43,67.92 V73.14 H224.65 V67.92 H219.43 Z M224.65,67.92 V73.14 H229.88 V67.92 H224.65 Z M20.90,73.14 V78.37 H26.12 V73.14 H20.90 Z M26.12,73.14 V78.37 H31.35 V73.14 H26.12 Z M31.35,73.14 V78.37 H36.57 V73.14 H31.35 Z M47.02,73.14 V78.37 H52.24 V73.14 H47.02 Z M52.24,73.14 V78.37 H57.47 V73.14 H52.24 Z M57.47,73.14 V78.37 H62.69 V73.14 H57.47 Z M67.92,73.14 V78.37 H73.14 V73.14 H67.92 Z M73.14,73.14 V78.37 H78.37 V73.14 H73.14 Z M78.37,73.14 V78.37 H83.59 V73.14 H78.37 Z M88.82,73.14 V78.37 H94.04 V73.14 H88.82 Z M94.04,73.14 V78.37 H99.27 V73.14 H94.04 Z M104.49,73.14 V78.37 H109.71 V73.14 H104.49 Z M109.71,73.14 V78.37 H114.94 V73.14 H109.71 Z M120.16,73.14 V78.37 H125.39 V73.14 H120.16 Z M130.61,73.14 V78.37 H135.84 V73.14 H130.61 Z M135.84,73.14 V78.37 H141.06 V73.14 H135.84 Z M146.29,73.14 V78.37 H151.51 V73.14 H146.29 Z M151.51,73.14 V78.37 H156.73 V73.14 H151.51 Z M156.73,73.14 V78.37 H161.96 V73.14 H156.73 Z M182.86,73.14 V78.37 H188.08 V73.14 H182.86 Z M198.53,73.14 V78.37 H203.76 V73.14 H198.53 Z M203.76,73.14 V78.37 H208.98 V73.14 H203.76 Z M214.20,73.14 V78.37 H219.43 V73.14 H214.20 Z M229.88,73.14 V78.37 H235.10 V73.14 H229.88 Z M20.90,78.37 V83.59 H26.12 V78.37 H20.90 Z M47.02,78.37 V83.59 H52.24 V78.37 H47.02 Z M67.92,78.37 V83.59 H73.14 V78.37 H67.92 Z M73.14,78.37 V83.59 H78.37 V78.37 H73.14 Z M78.37,78.37 V83.59 H83.59 V78.37 H78.37 Z M88.82,78.37 V83.59 H94.04 V78.37 H88.82 Z M104.49,78.37 V83.59 H109.71 V78.37 H104.49 Z M120.16,78.37 V83.59 H125.39 V78.37 H120.16 Z M156.73,78.37 V83.59 H161.96 V78.37 H156.73 Z M172.41,78.37 V83.59 H177.63 V78.37 H172.41 Z M193.31,78.37 V83.59 H198.53 V78.37 H193.31 Z M198.53,78.37 V83.59 H203.76 V78.37 H198.53 Z M208.98,78.37 V83.59 H214.20 V78.37 H208.98 Z M219.43,78.37 V83.59 H224.65 V78.37 H219.43 Z M224.65,78.37 V83.59 H229.88 V78.37 H224.65 Z M20.90,83.59 V88.82 H26.12 V83.59 H20.90 Z M36.57,83.59 V88.82 H41.80 V83.59 H36.57 Z M52.24,83.59 V88.82 H57.47 V83.59 H52.24 Z M57.47,83.59 V88.82 H62.69 V83.59 H57.47 Z M62.69,83.59 V88.82 H67.92 V83.59 H62.69 Z M73.14,83.59 V88.82 H78.37 V83.59 H73.14 Z M78.37,83.59 V88.82 H83.59 V83.59 H78.37 Z M99.27,83.59 V88.82 H104.49 V83.59 H99.27 Z M120.16,83.59 V88.82 H125.39 V83.59 H120.16 Z M130.61,83.59 V88.82 H135.84 V83.59 H130.61 Z M146.29,83.59 V88.82 H151.51 V83.59 H146.29 Z M156.73,83.59 V88.82 H161.96 V83.59 H156.73 Z M161.96,83.59 V88.82 H167.18 V83.59 H161.96 Z M177.63,83.59 V88.82 H182.86 V83.59 H177.63 Z M188.08,83.59 V88.82 H193.31 V83.59 H188.08 Z M193.31,83.59 V88.82 H198.53 V83.59 H193.31 Z M214.20,83.59 V88.82 H219.43 V83.59 H214.20 Z M224.65,83.59 V88.82 H229.88 V83.59 H224.65 Z M36.57,88.82 V94.04 H41.80 V88.82 H36.57 Z M41.80,88.82 V94.04 H47.02 V88.82 H41.80 Z M47.02,88.82 V94.04 H52.24 V88.82 H47.02 Z M57.47,88.82 V94.04 H62.69 V88.82 H57.47 Z M67.92,88.82 V94.04 H73.14 V88.82 H67.92 Z M73.14,88.82 V94.04 H78.37 V88.82 H73.14 Z M94.04,88.82 V94.04 H99.27 V88.82 H94.04 Z M135.84,88.82 V94.04 H141.06 V88.82 H135.84 Z M146.29,88.82 V94.04 H151.51 V88.82 H146.29 Z M182.86,88.82 V94.04 H188.08 V88.82 H182.86 Z M188.08,88.82 V94.04 H193.31 V88.82 H188.08 Z M198.53,88.82 V94.04 H203.76 V88.82 H198.53 Z M208.98,88.82 V94.04 H214.20 V88.82 H208.98 Z M214.20,88.82 V94.04 H219.43 V88.82 H214.20 Z M219.43,88.82 V94.04 H224.65 V88.82 H219.43 Z M20.90,94.04 V99.27 H26.12 V94.04 H20.90 Z M26.12,94.04 V99.27 H31.35 V94.04 H26.12 Z M31.35,94.04 V99.27 H36.57 V94.04 H31.35 Z M36.57,94.04 V99.27 H41.80 V94.04 H36.57 Z M41.80,94.04 V99.27 H47.02 V94.04 H41.80 Z M52.24,94.04 V99.27 H57.47 V94.04 H52.24 Z M62.69,94.04 V99.27 H67.92 V94.04 H62.69 Z M78.37,94.04 V99.27 H83.59 V94.04 H78.37 Z M83.59,94.04 V99.27 H88.82 V94.04 H83.59 Z M88.82,94.04 V99.27 H94.04 V94.04 H88.82 Z M104.49,94.04 V99.27 H109.71 V94.04 H104.49 Z M114.94,94.04 V99.27 H120.16 V94.04 H114.94 Z M125.39,94.04 V99.27 H130.61 V94.04 H125.39 Z M130.61,94.04 V99.27 H135.84 V94.04 H130.61 Z M135.84,94.04 V99.27 H141.06 V94.04 H135.84 Z M151.51,94.04 V99.27 H156.73 V94.04 H151.51 Z M156.73,94.04 V99.27 H161.96 V94.04 H156.73 Z M167.18,94.04 V99.27 H172.41 V94.04 H167.18 Z M193.31,94.04 V99.27 H198.53 V94.04 H193.31 Z M198.53,94.04 V99.27 H203.76 V94.04 H198.53 Z M214.20,94.04 V99.27 H219.43 V94.04 H214.20 Z M219.43,94.04 V99.27 H224.65 V94.04 H219.43 Z M229.88,94.04 V99.27 H235.10 V94.04 H229.88 Z M20.90,99.27 V104.49 H26.12 V99.27 H20.90 Z M26.12,99.27 V104.49 H31.35 V99.27 H26.12 Z M31.35,99.27 V104.49 H36.57 V99.27 H31.35 Z M36.57,99.27 V104.49 H41.80 V99.27 H36.57 Z M41.80,99.27 V104.49 H47.02 V99.27 H41.80 Z M47.02,99.27 V104.49 H52.24 V99.27 H47.02 Z M67.92,99.27 V104.49 H73.14 V99.27 H67.92 Z M73.14,99.27 V104.49 H78.37 V99.27 H73.14 Z M88.82,99.27 V104.49 H94.04 V99.27 H88.82 Z M94.04,99.27 V104.49 H99.27 V99.27 H94.04 Z M99.27,99.27 V104.49 H104.49 V99.27 H99.27 Z M109.71,99.27 V104.49 H114.94 V99.27 H109.71 Z M130.61,99.27 V104.49 H135.84 V99.27 H130.61 Z M146.29,99.27 V104.49 H151.51 V99.27 H146.29 Z M151.51,99.27 V104.49 H156.73 V99.27 H151.51 Z M167.18,99.27 V104.49 H172.41 V99.27 H167.18 Z M177.63,99.27 V104.49 H182.86 V99.27 H177.63 Z M182.86,99.27 V104.49 H188.08 V99.27 H182.86 Z M193.31,99.27 V104.49 H198.53 V99.27 H193.31 Z M203.76,99.27 V104.49 H208.98 V99.27 H203.76 Z M20.90,104.49 V109.71 H26.12 V104.49 H20.90 Z M41.80,104.49 V109.71 H47.02 V104.49 H41.80 Z M52.24,104.49 V109.71 H57.47 V104.49 H52.24 Z M73.14,104.49 V109.71 H78.37 V104.49 H73.14 Z M78.37,104.49 V109.71 H83.59 V104.49 H78.37 Z M88.82,104.49 V109.71 H94.04 V104.49 H88.82 Z M94.04,104.49 V109.71 H99.27 V104.49 H94.04 Z M99.27,104.49 V109.71 H104.49 V104.49 H99.27 Z M104.49,104.49 V109.71 H109.71 V104.49 H104.49 Z M109.71,104.49 V109.71 H114.94 V104.49 H109.71 Z M125.39,104.49 V109.71 H130.61 V104.49 H125.39 Z M135.84,104.49 V109.71 H141.06 V104.49 H135.84 Z M141.06,104.49 V109.71 H146.29 V104.49 H141.06 Z M146.29,104.49 V109.71 H151.51 V104.49 H146.29 Z M156.73,104.49 V109.71 H161.96 V104.49 H156.73 Z M182.86,104.49 V109.71 H188.08 V104.49 H182.86 Z M188.08,104.49 V109.71 H193.31 V104.49 H188.08 Z M203.76,104.49 V109.71 H208.98 V104.49 H203.76 Z M214.20,104.49 V109.71 H219.43 V104.49 H214.20 Z M224.65,104.49 V109.71 H229.88 V104.49 H224.65 Z M229.88,104.49 V109.71 H235.10 V104.49 H229.88 Z M26.12,109.71 V114.94 H31.35 V109.71 H26.12 Z M31.35,109.71 V114.94 H36.57 V109.71 H31.35 Z M62.69,109.71 V114.94 H67.92 V109.71 H62.69 Z M78.37,109.71 V114.94 H83.59 V109.71 H78.37 Z M109.71,109.71 V114.94 H114.94 V109.71 H109.71 Z M114.94,109.71 V114.94 H120.16 V109.71 H114.94 Z M135.84,109.71 V114.94 H141.06 V109.71 H135.84 Z M141.06,109.71 V114.94 H146.29 V109.71 H141.06 Z M156.73,109.71 V114.94 H161.96 V109.71 H156.73 Z M177.63,109.71 V114.94 H182.86 V109.71 H177.63 Z M188.08,109.71 V114.94 H193.31 V109.71 H188.08 Z M193.31,109.71 V114.94 H198.53 V109.71 H193.31 Z M208.98,109.71 V114.94 H214.20 V109.71 H208.98 Z M219.43,109.71 V114.94 H224.65 V109.71 H219.43 Z M224.65,109.71 V114.94 H229.88 V109.71 H224.65 Z M20.90,114.94 V120.16 H26.12 V114.94 H20.90 Z M31.35,114.94 V120.16 H36.57 V114.94 H31.35 Z M41.80,114.94 V120.16 H47.02 V114.94 H41.80 Z M52.24,114.94 V120.16 H57.47 V114.94 H52.24 Z M67.92,114.94 V120.16 H73.14 V114.94 H67.92 Z M78.37,114.94 V120.16 H83.59 V114.94 H78.37 Z M83.59,114.94 V120.16 H88.82 V114.94 H83.59 Z M99.27,114.94 V120.16 H104.49 V114.94 H99.27 Z M104.49,114.94 V120.16 H109.71 V114.94 H104.49 Z M114.94,114.94 V120.16 H120.16 V114.94 H114.94 Z M125.39,114.94 V120.16 H130.61 V114.94 H125.39 Z M141.06,114.94 V120.16 H146.29 V114.94 H141.06 Z M151.51,114.94 V120.16 H156.73 V114.94 H151.51 Z M161.96,114.94 V120.16 H167.18 V114.94 H161.96 Z M172.41,114.94 V120.16 H177.63 V114.94 H172.41 Z M177.63,114.94 V120.16 H182.86 V114.94 H177.63 Z M182.86,114.94 V120.16 H188.08 V114.94 H182.86 Z M193.31,114.94 V120.16 H198.53 V114.94 H193.31 Z M203.76,114.94 V120.16 H208.98 V114.94 H203.76 Z M214.20,114.94 V120.16 H219.43 V114.94 H214.20 Z M219.43,114.94 V120.16 H224.65 V114.94 H219.43 Z M26.12,120.16 V125.39 H31.35 V120.16 H26.12 Z M41.80,120.16 V125.39 H47.02 V120.16 H41.80 Z M62.69,120.16 V125.39 H67.92 V120.16 H62.69 Z M67.92,120.16 V125.39 H73.14 V120.16 H67.92 Z M78.37,120.16 V125.39 H83.59 V120.16 H78.37 Z M88.82,120.16 V125.39 H94.04 V120.16 H88.82 Z M94.04,120.16 V125.39 H99.27 V120.16 H94.04 Z M109.71,120.16 V125.39 H114.94 V120.16 H109.71 Z M114.94,120.16 V125.39 H120.16 V120.16 H114.94 Z M120.16,120.16 V125.39 H125.39 V120.16 H120.16 Z M125.39,120.16 V125.39 H130.61 V120.16 H125.39 Z M130.61,120.16 V125.39 H135.84 V120.16 H130.61 Z M141.06,120.16 V125.39 H146.29 V120.16 H141.06 Z M156.73,120.16 V125.39 H161.96 V120.16 H156.73 Z M167.18,120.16 V125.39 H172.41 V120.16 H167.18 Z M193.31,120.16 V125.39 H198.53 V120.16 H193.31 Z M203.76,120.16 V125.39 H208.98 V120.16 H203.76 Z M208.98,120.16 V125.39 H214.20 V120.16 H208.98 Z M219.43,120.16 V125.39 H224.65 V120.16 H219.43 Z M224.65,120.16 V125.39 H229.88 V120.16 H224.65 Z M36.57,125.39 V130.61 H41.80 V125.39 H36.57 Z M52.24,125.39 V130.61 H57.47 V125.39 H52.24 Z M67.92,125.39 V130.61 H73.14 V125.39 H67.92 Z M78.37,125.39 V130.61 H83.59 V125.39 H78.37 Z M88.82,125.39 V130.61 H94.04 V125.39 H88.82 Z M94.04,125.39 V130.61 H99.27 V125.39 H94.04 Z M99.27,125.39 V130.61 H104.49 V125.39 H99.27 Z M104.49,125.39 V130.61 H109.71 V125.39 H104.49 Z M109.71,125.39 V130.61 H114.94 V125.39 H109.71 Z M114.94,125.39 V130.61 H120.16 V125.39 H114.94 Z M141.06,125.39 V130.61 H146.29 V125.39 H141.06 Z M146.29,125.39 V130.61 H151.51 V125.39 H146.29 Z M156.73,125.39 V130.61 H161.96 V125.39 H156.73 Z M161.96,125.39 V130.61 H167.18 V125.39 H161.96 Z M167.18,125.39 V130.61 H172.41 V125.39 H167.18 Z M172.41,125.39 V130.61 H177.63 V125.39 H172.41 Z M177.63,125.39 V130.61 H182.86 V125.39 H177.63 Z M198.53,125.39 V130.61 H203.76 V125.39 H198.53 Z M203.76,125.39 V130.61 H208.98 V125.39 H203.76 Z M208.98,125.39 V130.61 H214.20 V125.39 H208.98 Z M214.20,125.39 V130.61 H219.43 V125.39 H214.20 Z M224.65,125.39 V130.61 H229.88 V125.39 H224.65 Z M229.88,125.39 V130.61 H235.10 V125.39 H229.88 Z M20.90,130.61 V135.84 H26.12 V130.61 H20.90 Z M31.35,130.61 V135.84 H36.57 V130.61 H31.35 Z M41.80,130.61 V135.84 H47.02 V130.61 H41.80 Z M47.02,130.61 V135.84 H52.24 V130.61 H47.02 Z M67.92,130.61 V135.84 H73.14 V130.61 H67.92 Z M73.14,130.61 V135.84 H78.37 V130.61 H73.14 Z M88.82,130.61 V135.84 H94.04 V130.61 H88.82 Z M94.04,130.61 V135.84 H99.27 V130.61 H94.04 Z M109.71,130.61 V135.84 H114.94 V130.61 H109.71 Z M120.16,130.61 V135.84 H125.39 V130.61 H120.16 Z M125.39,130.61 V135.84 H130.61 V130.61 H125.39 Z M130.61,130.61 V135.84 H135.84 V130.61 H130.61 Z M156.73,130.61 V135.84 H161.96 V130.61 H156.73 Z M198.53,130.61 V135.84 H203.76 V130.61 H198.53 Z M208.98,130.61 V135.84 H214.20 V130.61 H208.98 Z M214.20,130.61 V135.84 H219.43 V130.61 H214.20 Z M20.90,135.84 V141.06 H26.12 V135.84 H20.90 Z M36.57,135.84 V141.06 H41.80 V135.84 H36.57 Z M41.80,135.84 V141.06 H47.02 V135.84 H41.80 Z M47.02,135.84 V141.06 H52.24 V135.84 H47.02 Z M52.24,135.84 V141.06 H57.47 V135.84 H52.24 Z M57.47,135.84 V141.06 H62.69 V135.84 H57.47 Z M67.92,135.84 V141.06 H73.14 V135.84 H67.92 Z M73.14,135.84 V141.06 H78.37 V135.84 H73.14 Z M83.59,135.84 V141.06 H88.82 V135.84 H83.59 Z M88.82,135.84 V141.06 H94.04 V135.84 H88.82 Z M104.49,135.84 V141.06 H109.71 V135.84 H104.49 Z M109.71,135.84 V141.06 H114.94 V135.84 H109.71 Z M130.61,135.84 V141.06 H135.84 V135.84 H130.61 Z M146.29,135.84 V141.06 H151.51 V135.84 H146.29 Z M156.73,135.84 V141.06 H161.96 V135.84 H156.73 Z M177.63,135.84 V141.06 H182.86 V135.84 H177.63 Z M182.86,135.84 V141.06 H188.08 V135.84 H182.86 Z M193.31,135.84 V141.06 H198.53 V135.84 H193.31 Z M208.98,135.84 V141.06 H214.20 V135.84 H208.98 Z M214.20,135.84 V141.06 H219.43 V135.84 H214.20 Z M224.65,135.84 V141.06 H229.88 V135.84 H224.65 Z M229.88,135.84 V141.06 H235.10 V135.84 H229.88 Z M47.02,141.06 V146.29 H52.24 V141.06 H47.02 Z M57.47,141.06 V146.29 H62.69 V141.06 H57.47 Z M67.92,141.06 V146.29 H73.14 V141.06 H67.92 Z M73.14,141.06 V146.29 H78.37 V141.06 H73.14 Z M78.37,141.06 V146.29 H83.59 V141.06 H78.37 Z M83.59,141.06 V146.29 H88.82 V141.06 H83.59 Z M94.04,141.06 V146.29 H99.27 V141.06 H94.04 Z M99.27,141.06 V146.29 H104.49 V141.06 H99.27 Z M114.94,141.06 V146.29 H120.16 V141.06 H114.94 Z M125.39,141.06 V146.29 H130.61 V141.06 H125.39 Z M130.61,141.06 V146.29 H135.84 V141.06 H130.61 Z M135.84,141.06 V146.29 H141.06 V141.06 H135.84 Z M141.06,141.06 V146.29 H146.29 V141.06 H141.06 Z M146.29,141.06 V146.29 H151.51 V141.06 H146.29 Z M151.51,141.06 V146.29 H156.73 V141.06 H151.51 Z M161.96,141.06 V146.29 H167.18 V141.06 H161.96 Z M167.18,141.06 V146.29 H172.41 V141.06 H167.18 Z M172.41,141.06 V146.29 H177.63 V141.06 H172.41 Z M177.63,141.06 V146.29 H182.86 V141.06 H177.63 Z M193.31,141.06 V146.29 H198.53 V141.06 H193.31 Z M198.53,141.06 V146.29 H203.76 V141.06 H198.53 Z M203.76,141.06 V146.29 H208.98 V141.06 H203.76 Z M208.98,141.06 V146.29 H214.20 V141.06 H208.98 Z M214.20,141.06 V146.29 H219.43 V141.06 H214.20 Z M20.90,146.29 V151.51 H26.12 V146.29 H20.90 Z M31.35,146.29 V151.51 H36.57 V146.29 H31.35 Z M36.57,146.29 V151.51 H41.80 V146.29 H36.57 Z M41.80,146.29 V151.51 H47.02 V146.29 H41.80 Z M47.02,146.29 V151.51 H52.24 V146.29 H47.02 Z M52.24,146.29 V151.51 H57.47 V146.29 H52.24 Z M62.69,146.29 V151.51 H67.92 V146.29 H62.69 Z M78.37,146.29 V151.51 H83.59 V146.29 H78.37 Z M83.59,146.29 V151.51 H88.82 V146.29 H83.59 Z M94.04,146.29 V151.51 H99.27 V146.29 H94.04 Z M104.49,146.29 V151.51 H109.71 V146.29 H104.49 Z M114.94,146.29 V151.51 H120.16 V146.29 H114.94 Z M120.16,146.29 V151.51 H125.39 V146.29 H120.16 Z M130.61,146.29 V151.51 H135.84 V146.29 H130.61 Z M135.84,146.29 V151.51 H141.06 V146.29 H135.84 Z M141.06,146.29 V151.51 H146.29 V146.29 H141.06 Z M146.29,146.29 V151.51 H151.51 V146.29 H146.29 Z M156.73,146.29 V151.51 H161.96 V146.29 H156.73 Z M161.96,146.29 V151.51 H167.18 V146.29 H161.96 Z M172.41,146.29 V151.51 H177.63 V146.29 H172.41 Z M182.86,146.29 V151.51 H188.08 V146.29 H182.86 Z M193.31,146.29 V151.51 H198.53 V146.29 H193.31 Z M203.76,146.29 V151.51 H208.98 V146.29 H203.76 Z M214.20,146.29 V151.51 H219.43 V146.29 H214.20 Z M229.88,146.29 V151.51 H235.10 V146.29 H229.88 Z M57.47,151.51 V156.73 H62.69 V151.51 H57.47 Z M73.14,151.51 V156.73 H78.37 V151.51 H73.14 Z M94.04,151.51 V156.73 H99.27 V151.51 H94.04 Z M104.49,151.51 V156.73 H109.71 V151.51 H104.49 Z M114.94,151.51 V156.73 H120.16 V151.51 H114.94 Z M120.16,151.51 V156.73 H125.39 V151.51 H120.16 Z M125.39,151.51 V156.73 H130.61 V151.51 H125.39 Z M151.51,151.51 V156.73 H156.73 V151.51 H151.51 Z M167.18,151.51 V156.73 H172.41 V151.51 H167.18 Z M172.41,151.51 V156.73 H177.63 V151.51 H172.41 Z M177.63,151.51 V156.73 H182.86 V151.51 H177.63 Z M182.86,151.51 V156.73 H188.08 V151.51 H182.86 Z M193.31,151.51 V156.73 H198.53 V151.51 H193.31 Z M198.53,151.51 V156.73 H203.76 V151.51 H198.53 Z M203.76,151.51 V156.73 H208.98 V151.51 H203.76 Z M208.98,151.51 V156.73 H214.20 V151.51 H208.98 Z M214.20,151.51 V156.73 H219.43 V151.51 H214.20 Z M219.43,151.51 V156.73 H224.65 V151.51 H219.43 Z M229.88,151.51 V156.73 H235.10 V151.51 H229.88 Z M20.90,156.73 V161.96 H26.12 V156.73 H20.90 Z M41.80,156.73 V161.96 H47.02 V156.73 H41.80 Z M47.02,156.73 V161.96 H52.24 V156.73 H47.02 Z M52.24,156.73 V161.96 H57.47 V156.73 H52.24 Z M62.69,156.73 V161.96 H67.92 V156.73 H62.69 Z M67.92,156.73 V161.96 H73.14 V156.73 H67.92 Z M73.14,156.73 V161.96 H78.37 V156.73 H73.14 Z M83.59,156.73 V161.96 H88.82 V156.73 H83.59 Z M94.04,156.73 V161.96 H99.27 V156.73 H94.04 Z M104.49,156.73 V161.96 H109.71 V156.73 H104.49 Z M109.71,156.73 V161.96 H114.94 V156.73 H109.71 Z M114.94,156.73 V161.96 H120.16 V156.73 H114.94 Z M141.06,156.73 V161.96 H146.29 V156.73 H141.06 Z M151.51,156.73 V161.96 H156.73 V156.73 H151.51 Z M156.73,156.73 V161.96 H161.96 V156.73 H156.73 Z M161.96,156.73 V161.96 H167.18 V156.73 H161.96 Z M167.18,156.73 V161.96 H172.41 V156.73 H167.18 Z M177.63,156.73 V161.96 H182.86 V156.73 H177.63 Z M182.86,156.73 V161.96 H188.08 V156.73 H182.86 Z M214.20,156.73 V161.96 H219.43 V156.73 H214.20 Z M219.43,156.73 V161.96 H224.65 V156.73 H219.43 Z M224.65,156.73 V161.96 H229.88 V156.73 H224.65 Z M31.35,161.96 V167.18 H36.57 V161.96 H31.35 Z M62.69,161.96 V167.18 H67.92 V161.96 H62.69 Z M67.92,161.96 V167.18 H73.14 V161.96 H67.92 Z M73.14,161.96 V167.18 H78.37 V161.96 H73.14 Z M78.37,161.96 V167.18 H83.59 V161.96 H78.37 Z M83.59,161.96 V167.18 H88.82 V161.96 H83.59 Z M94.04,161.96 V167.18 H99.27 V161.96 H94.04 Z M104.49,161.96 V167.18 H109.71 V161.96 H104.49 Z M109.71,161.96 V167.18 H114.94 V161.96 H109.71 Z M114.94,161.96 V167.18 H120.16 V161.96 H114.94 Z M125.39,161.96 V167.18 H130.61 V161.96 H125.39 Z M130.61,161.96 V167.18 H135.84 V161.96 H130.61 Z M135.84,161.96 V167.18 H141.06 V161.96 H135.84 Z M141.06,161.96 V167.18 H146.29 V161.96 H141.06 Z M146.29,161.96 V167.18 H151.51 V161.96 H146.29 Z M151.51,161.96 V167.18 H156.73 V161.96 H151.51 Z M156.73,161.96 V167.18 H161.96 V161.96 H156.73 Z M161.96,161.96 V167.18 H167.18 V161.96 H161.96 Z M182.86,161.96 V167.18 H188.08 V161.96 H182.86 Z M193.31,161.96 V167.18 H198.53 V161.96 H193.31 Z M198.53,161.96 V167.18 H203.76 V161.96 H198.53 Z M208.98,161.96 V167.18 H214.20 V161.96 H208.98 Z M214.20,161.96 V167.18 H219.43 V161.96 H214.20 Z M219.43,161.96 V167.18 H224.65 V161.96 H219.43 Z M224.65,161.96 V167.18 H229.88 V161.96 H224.65 Z M20.90,167.18 V172.41 H26.12 V167.18 H20.90 Z M47.02,167.18 V172.41 H52.24 V167.18 H47.02 Z M52.24,167.18 V172.41 H57.47 V167.18 H52.24 Z M62.69,167.18 V172.41 H67.92 V167.18 H62.69 Z M99.27,167.18 V172.41 H104.49 V167.18 H99.27 Z M104.49,167.18 V172.41 H109.71 V167.18 H104.49 Z M109.71,167.18 V172.41 H114.94 V167.18 H109.71 Z M120.16,167.18 V172.41 H125.39 V167.18 H120.16 Z M130.61,167.18 V172.41 H135.84 V167.18 H130.61 Z M141.06,167.18 V172.41 H146.29 V167.18 H141.06 Z M146.29,167.18 V172.41 H151.51 V167.18 H146.29 Z M151.51,167.18 V172.41 H156.73 V167.18 H151.51 Z M156.73,167.18 V172.41 H161.96 V167.18 H156.73 Z M177.63,167.18 V172.41 H182.86 V167.18 H177.63 Z M182.86,167.18 V172.41 H188.08 V167.18 H182.86 Z M193.31,167.18 V172.41 H198.53 V167.18 H193.31 Z M198.53,167.18 V172.41 H203.76 V167.18 H198.53 Z M20.90,172.41 V177.63 H26.12 V172.41 H20.90 Z M62.69,172.41 V177.63 H67.92 V172.41 H62.69 Z M78.37,172.41 V177.63 H83.59 V172.41 H78.37 Z M88.82,172.41 V177.63 H94.04 V172.41 H88.82 Z M120.16,172.41 V177.63 H125.39 V172.41 H120.16 Z M135.84,172.41 V177.63 H141.06 V172.41 H135.84 Z M141.06,172.41 V177.63 H146.29 V172.41 H141.06 Z M156.73,172.41 V177.63 H161.96 V172.41 H156.73 Z M172.41,172.41 V177.63 H177.63 V172.41 H172.41 Z M177.63,172.41 V177.63 H182.86 V172.41 H177.63 Z M188.08,172.41 V177.63 H193.31 V172.41 H188.08 Z M198.53,172.41 V177.63 H203.76 V172.41 H198.53 Z M203.76,172.41 V177.63 H208.98 V172.41 H203.76 Z M208.98,172.41 V177.63 H214.20 V172.41 H208.98 Z M20.90,177.63 V182.86 H26.12 V177.63 H20.90 Z M26.12,177.63 V182.86 H31.35 V177.63 H26.12 Z M36.57,177.63 V182.86 H41.80 V177.63 H36.57 Z M52.24,177.63 V182.86 H57.47 V177.63 H52.24 Z M73.14,177.63 V182.86 H78.37 V177.63 H73.14 Z M78.37,177.63 V182.86 H83.59 V177.63 H78.37 Z M83.59,177.63 V182.86 H88.82 V177.63 H83.59 Z M104.49,177.63 V182.86 H109.71 V177.63 H104.49 Z M120.16,177.63 V182.86 H125.39 V177.63 H120.16 Z M130.61,177.63 V182.86 H135.84 V177.63 H130.61 Z M135.84,177.63 V182.86 H141.06 V177.63 H135.84 Z M141.06,177.63 V182.86 H146.29 V177.63 H141.06 Z M151.51,177.63 V182.86 H156.73 V177.63 H151.51 Z M161.96,177.63 V182.86 H167.18 V177.63 H161.96 Z M167.18,177.63 V182.86 H172.41 V177.63 H167.18 Z M172.41,177.63 V182.86 H177.63 V177.63 H172.41 Z M182.86,177.63 V182.86 H188.08 V177.63 H182.86 Z M188.08,177.63 V182.86 H193.31 V177.63 H188.08 Z M198.53,177.63 V182.86 H203.76 V177.63 H198.53 Z M208.98,177.63 V182.86 H214.20 V177.63 H208.98 Z M26.12,182.86 V188.08 H31.35 V182.86 H26.12 Z M31.35,182.86 V188.08 H36.57 V182.86 H31.35 Z M41.80,182.86 V188.08 H47.02 V182.86 H41.80 Z M57.47,182.86 V188.08 H62.69 V182.86 H57.47 Z M62.69,182.86 V188.08 H67.92 V182.86 H62.69 Z M67.92,182.86 V188.08 H73.14 V182.86 H67.92 Z M78.37,182.86 V188.08 H83.59 V182.86 H78.37 Z M88.82,182.86 V188.08 H94.04 V182.86 H88.82 Z M99.27,182.86 V188.08 H104.49 V182.86 H99.27 Z M104.49,182.86 V188.08 H109.71 V182.86 H104.49 Z M109.71,182.86 V188.08 H114.94 V182.86 H109.71 Z M114.94,182.86 V188.08 H120.16 V182.86 H114.94 Z M125.39,182.86 V188.08 H130.61 V182.86 H125.39 Z M130.61,182.86 V188.08 H135.84 V182.86 H130.61 Z M141.06,182.86 V188.08 H146.29 V182.86 H141.06 Z M146.29,182.86 V188.08 H151.51 V182.86 H146.29 Z M156.73,182.86 V188.08 H161.96 V182.86 H156.73 Z M161.96,182.86 V188.08 H167.18 V182.86 H161.96 Z M167.18,182.86 V188.08 H172.41 V182.86 H167.18 Z M177.63,182.86 V188.08 H182.86 V182.86 H177.63 Z M182.86,182.86 V188.08 H188.08 V182.86 H182.86 Z M188.08,182.86 V188.08 H193.31 V182.86 H188.08 Z M193.31,182.86 V188.08 H198.53 V182.86 H193.31 Z M198.53,182.86 V188.08 H203.76 V182.86 H198.53 Z M208.98,182.86 V188.08 H214.20 V182.86 H208.98 Z M214.20,182.86 V188.08 H219.43 V182.86 H214.20 Z M224.65,182.86 V188.08 H229.88 V182.86 H224.65 Z M20.90,188.08 V193.31 H26.12 V188.08 H20.90 Z M41.80,188.08 V193.31 H47.02 V188.08 H41.80 Z M52.24,188.08 V193.31 H57.47 V188.08 H52.24 Z M57.47,188.08 V193.31 H62.69 V188.08 H57.47 Z M78.37,188.08 V193.31 H83.59 V188.08 H78.37 Z M83.59,188.08 V193.31 H88.82 V188.08 H83.59 Z M120.16,188.08 V193.31 H125.39 V188.08 H120.16 Z M125.39,188.08 V193.31 H130.61 V188.08 H125.39 Z M130.61,188.08 V193.31 H135.84 V188.08 H130.61 Z M135.84,188.08 V193.31 H141.06 V188.08 H135.84 Z M146.29,188.08 V193.31 H151.51 V188.08 H146.29 Z M151.51,188.08 V193.31 H156.73 V188.08 H151.51 Z M156.73,188.08 V193.31 H161.96 V188.08 H156.73 Z M182.86,188.08 V193.31 H188.08 V188.08 H182.86 Z M188.08,188.08 V193.31 H193.31 V188.08 H188.08 Z M193.31,188.08 V193.31 H198.53 V188.08 H193.31 Z M198.53,188.08 V193.31 H203.76 V188.08 H198.53 Z M203.76,188.08 V193.31 H208.98 V188.08 H203.76 Z M208.98,188.08 V193.31 H214.20 V188.08 H208.98 Z M229.88,188.08 V193.31 H235.10 V188.08 H229.88 Z M62.69,193.31 V198.53 H67.92 V193.31 H62.69 Z M78.37,193.31 V198.53 H83.59 V193.31 H78.37 Z M83.59,193.31 V198.53 H88.82 V193.31 H83.59 Z M94.04,193.31 V198.53 H99.27 V193.31 H94.04 Z M99.27,193.31 V198.53 H104.49 V193.31 H99.27 Z M104.49,193.31 V198.53 H109.71 V193.31 H104.49 Z M109.71,193.31 V198.53 H114.94 V193.31 H109.71 Z M120.16,193.31 V198.53 H125.39 V193.31 H120.16 Z M125.39,193.31 V198.53 H130.61 V193.31 H125.39 Z M141.06,193.31 V198.53 H146.29 V193.31 H141.06 Z M146.29,193.31 V198.53 H151.51 V193.31 H146.29 Z M151.51,193.31 V198.53 H156.73 V193.31 H151.51 Z M177.63,193.31 V198.53 H182.86 V193.31 H177.63 Z M188.08,193.31 V198.53 H193.31 V193.31 H188.08 Z M208.98,193.31 V198.53 H214.20 V193.31 H208.98 Z M219.43,193.31 V198.53 H224.65 V193.31 H219.43 Z M224.65,193.31 V198.53 H229.88 V193.31 H224.65 Z M20.90,198.53 V203.76 H26.12 V198.53 H20.90 Z M26.12,198.53 V203.76 H31.35 V198.53 H26.12 Z M31.35,198.53 V203.76 H36.57 V198.53 H31.35 Z M36.57,198.53 V203.76 H41.80 V198.53 H36.57 Z M41.80,198.53 V203.76 H47.02 V198.53 H41.80 Z M47.02,198.53 V203.76 H52.24 V198.53 H47.02 Z M52.24,198.53 V203.76 H57.47 V198.53 H52.24 Z M83.59,198.53 V203.76 H88.82 V198.53 H83.59 Z M94.04,198.53 V203.76 H99.27 V198.53 H94.04 Z M114.94,198.53 V203.76 H120.16 V198.53 H114.94 Z M125.39,198.53 V203.76 H130.61 V198.53 H125.39 Z M141.06,198.53 V203.76 H146.29 V198.53 H141.06 Z M146.29,198.53 V203.76 H151.51 V198.53 H146.29 Z M151.51,198.53 V203.76 H156.73 V198.53 H151.51 Z M167.18,198.53 V203.76 H172.41 V198.53 H167.18 Z M172.41,198.53 V203.76 H177.63 V198.53 H172.41 Z M182.86,198.53 V203.76 H188.08 V198.53 H182.86 Z M188.08,198.53 V203.76 H193.31 V198.53 H188.08 Z M198.53,198.53 V203.76 H203.76 V198.53 H198.53 Z M208.98,198.53 V203.76 H214.20 V198.53 H208.98 Z M20.90,203.76 V208.98 H26.12 V203.76 H20.90 Z M52.24,203.76 V208.98 H57.47 V203.76 H52.24 Z M67.92,203.76 V208.98 H73.14 V203.76 H67.92 Z M83.59,203.76 V208.98 H88.82 V203.76 H83.59 Z M88.82,203.76 V208.98 H94.04 V203.76 H88.82 Z M99.27,203.76 V208.98 H104.49 V203.76 H99.27 Z M114.94,203.76 V208.98 H120.16 V203.76 H114.94 Z M125.39,203.76 V208.98 H130.61 V203.76 H125.39 Z M141.06,203.76 V208.98 H146.29 V203.76 H141.06 Z M146.29,203.76 V208.98 H151.51 V203.76 H146.29 Z M161.96,203.76 V208.98 H167.18 V203.76 H161.96 Z M167.18,203.76 V208.98 H172.41 V203.76 H167.18 Z M177.63,203.76 V208.98 H182.86 V203.76 H177.63 Z M182.86,203.76 V208.98 H188.08 V203.76 H182.86 Z M188.08,203.76 V208.98 H193.31 V203.76 H188.08 Z M208.98,203.76 V208.98 H214.20 V203.76 H208.98 Z M214.20,203.76 V208.98 H219.43 V203.76 H214.20 Z M219.43,203.76 V208.98 H224.65 V203.76 H219.43 Z M20.90,208.98 V214.20 H26.12 V208.98 H20.90 Z M31.35,208.98 V214.20 H36.57 V208.98 H31.35 Z M36.57,208.98 V214.20 H41.80 V208.98 H36.57 Z M41.80,208.98 V214.20 H47.02 V208.98 H41.80 Z M52.24,208.98 V214.20 H57.47 V208.98 H52.24 Z M62.69,208.98 V214.20 H67.92 V208.98 H62.69 Z M67.92,208.98 V214.20 H73.14 V208.98 H67.92 Z M73.14,208.98 V214.20 H78.37 V208.98 H73.14 Z M88.82,208.98 V214.20 H94.04 V208.98 H88.82 Z M94.04,208.98 V214.20 H99.27 V208.98 H94.04 Z M109.71,208.98 V214.20 H114.94 V208.98 H109.71 Z M114.94,208.98 V214.20 H120.16 V208.98 H114.94 Z M120.16,208.98 V214.20 H125.39 V208.98 H120.16 Z M130.61,208.98 V214.20 H135.84 V208.98 H130.61 Z M135.84,208.98 V214.20 H141.06 V208.98 H135.84 Z M141.06,208.98 V214.20 H146.29 V208.98 H141.06 Z M151.51,208.98 V214.20 H156.73 V208.98 H151.51 Z M156.73,208.98 V214.20 H161.96 V208.98 H156.73 Z M161.96,208.98 V214.20 H167.18 V208.98 H161.96 Z M172.41,208.98 V214.20 H177.63 V208.98 H172.41 Z M177.63,208.98 V214.20 H182.86 V208.98 H177.63 Z M188.08,208.98 V214.20 H193.31 V208.98 H188.08 Z M193.31,208.98 V214.20 H198.53 V208.98 H193.31 Z M198.53,208.98 V214.20 H203.76 V208.98 H198.53 Z M203.76,208.98 V214.20 H208.98 V208.98 H203.76 Z M208.98,208.98 V214.20 H214.20 V208.98 H208.98 Z M219.43,208.98 V214.20 H224.65 V208.98 H219.43 Z M224.65,208.98 V214.20 H229.88 V208.98 H224.65 Z M229.88,208.98 V214.20 H235.10 V208.98 H229.88 Z M20.90,214.20 V219.43 H26.12 V214.20 H20.90 Z M31.35,214.20 V219.43 H36.57 V214.20 H31.35 Z M36.57,214.20 V219.43 H41.80 V214.20 H36.57 Z M41.80,214.20 V219.43 H47.02 V214.20 H41.80 Z M52.24,214.20 V219.43 H57.47 V214.20 H52.24 Z M78.37,214.20 V219.43 H83.59 V214.20 H78.37 Z M94.04,214.20 V219.43 H99.27 V214.20 H94.04 Z M99.27,214.20 V219.43 H104.49 V214.20 H99.27 Z M125.39,214.20 V219.43 H130.61 V214.20 H125.39 Z M135.84,214.20 V219.43 H141.06 V214.20 H135.84 Z M156.73,214.20 V219.43 H161.96 V214.20 H156.73 Z M161.96,214.20 V219.43 H167.18 V214.20 H161.96 Z M167.18,214.20 V219.43 H172.41 V214.20 H167.18 Z M188.08,214.20 V219.43 H193.31 V214.20 H188.08 Z M193.31,214.20 V219.43 H198.53 V214.20 H193.31 Z M219.43,214.20 V219.43 H224.65 V214.20 H219.43 Z M224.65,214.20 V219.43 H229.88 V214.20 H224.65 Z M20.90,219.43 V224.65 H26.12 V219.43 H20.90 Z M31.35,219.43 V224.65 H36.57 V219.43 H31.35 Z M36.57,219.43 V224.65 H41.80 V219.43 H36.57 Z M41.80,219.43 V224.65 H47.02 V219.43 H41.80 Z M52.24,219.43 V224.65 H57.47 V219.43 H52.24 Z M62.69,219.43 V224.65 H67.92 V219.43 H62.69 Z M73.14,219.43 V224.65 H78.37 V219.43 H73.14 Z M99.27,219.43 V224.65 H104.49 V219.43 H99.27 Z M114.94,219.43 V224.65 H120.16 V219.43 H114.94 Z M120.16,219.43 V224.65 H125.39 V219.43 H120.16 Z M125.39,219.43 V224.65 H130.61 V219.43 H125.39 Z M135.84,219.43 V224.65 H141.06 V219.43 H135.84 Z M151.51,219.43 V224.65 H156.73 V219.43 H151.51 Z M161.96,219.43 V224.65 H167.18 V219.43 H161.96 Z M172.41,219.43 V224.65 H177.63 V219.43 H172.41 Z M177.63,219.43 V224.65 H182.86 V219.43 H177.63 Z M182.86,219.43 V224.65 H188.08 V219.43 H182.86 Z M188.08,219.43 V224.65 H193.31 V219.43 H188.08 Z M193.31,219.43 V224.65 H198.53 V219.43 H193.31 Z M198.53,219.43 V224.65 H203.76 V219.43 H198.53 Z M214.20,219.43 V224.65 H219.43 V219.43 H214.20 Z M224.65,219.43 V224.65 H229.88 V219.43 H224.65 Z M20.90,224.65 V229.88 H26.12 V224.65 H20.90 Z M52.24,224.65 V229.88 H57.47 V224.65 H52.24 Z M62.69,224.65 V229.88 H67.92 V224.65 H62.69 Z M67.92,224.65 V229.88 H73.14 V224.65 H67.92 Z M73.14,224.65 V229.88 H78.37 V224.65 H73.14 Z M99.27,224.65 V229.88 H104.49 V224.65 H99.27 Z M141.06,224.65 V229.88 H146.29 V224.65 H141.06 Z M151.51,224.65 V229.88 H156.73 V224.65 H151.51 Z M156.73,224.65 V229.88 H161.96 V224.65 H156.73 Z M172.41,224.65 V229.88 H177.63 V224.65 H172.41 Z M177.63,224.65 V229.88 H182.86 V224.65 H177.63 Z M193.31,224.65 V229.88 H198.53 V224.65 H193.31 Z M203.76,224.65 V229.88 H208.98 V224.65 H203.76 Z M214.20,224.65 V229.88 H219.43 V224.65 H214.20 Z M20.90,229.88 V235.10 H26.12 V229.88 H20.90 Z M26.12,229.88 V235.10 H31.35 V229.88 H26.12 Z M31.35,229.88 V235.10 H36.57 V229.88 H31.35 Z M36.57,229.88 V235.10 H41.80 V229.88 H36.57 Z M41.80,229.88 V235.10 H47.02 V229.88 H41.80 Z M47.02,229.88 V235.10 H52.24 V229.88 H47.02 Z M52.24,229.88 V235.10 H57.47 V229.88 H52.24 Z M62.69,229.88 V235.10 H67.92 V229.88 H62.69 Z M83.59,229.88 V235.10 H88.82 V229.88 H83.59 Z M88.82,229.88 V235.10 H94.04 V229.88 H88.82 Z M94.04,229.88 V235.10 H99.27 V229.88 H94.04 Z M114.94,229.88 V235.10 H120.16 V229.88 H114.94 Z M120.16,229.88 V235.10 H125.39 V229.88 H120.16 Z M125.39,229.88 V235.10 H130.61 V229.88 H125.39 Z M141.06,229.88 V235.10 H146.29 V229.88 H141.06 Z M146.29,229.88 V235.10 H151.51 V229.88 H146.29 Z M151.51,229.88 V235.10 H156.73 V229.88 H151.51 Z M156.73,229.88 V235.10 H161.96 V229.88 H156.73 Z M177.63,229.88 V235.10 H182.86 V229.88 H177.63 Z M188.08,229.88 V235.10 H193.31 V229.88 H188.08 Z M203.76,229.88 V235.10 H208.98 V229.88 H203.76 Z M208.98,229.88 V235.10 H214.20 V229.88 H208.98 Z M219.43,229.88 V235.10 H224.65 V229.88 H219.43 Z M224.65,229.88 V235.10 H229.88 V229.88 H224.65 Z " /></svg>